<?xml version="1.0" encoding="UTF-8"?>
<svg id="Ebene_1" data-name="Ebene 1" xmlns="http://www.w3.org/2000/svg" viewBox="0 0 477.66 176.83">
  <defs>
    <style>
      .cls-1 {
        letter-spacing: 0em;
      }

      .cls-2 {
        letter-spacing: -.03em;
      }

      .cls-3 {
        letter-spacing: -.01em;
      }

      .cls-4 {
        fill: #868789;
        font-family: Raleway-Medium, Raleway;
        font-size: 54.16px;
        font-weight: 500;
      }

      .cls-5 {
        letter-spacing: 0em;
      }

      .cls-6 {
        fill: #f6b5a8;
      }

      .cls-7 {
        fill: #a2195b;
      }

      .cls-8 {
        letter-spacing: 0em;
      }
    </style>
  </defs>
  <polygon class="cls-7" points="36.73 63.27 55.19 63.27 55.19 81.73 45.96 89.48 45.96 81.73 36.73 81.73 36.73 63.27"/>
  <polygon class="cls-6" points="61.34 37.72 76.89 37.72 76.89 53.28 73.3 53.28 74.99 59.43 61.34 53.28 61.34 37.72"/>
  <polygon class="cls-6" points="62.91 66.18 90.38 66.18 90.38 93.65 76.65 93.65 76.89 103.66 62.91 93.65 62.91 66.18"/>
  <polygon class="cls-7" points="22.47 95.04 53.61 95.04 53.61 126.18 31.44 139.11 34.48 126.18 22.47 126.18 22.47 95.04"/>
  <text class="cls-4" transform="translate(111.42 93.65)"><tspan x="0" y="0">M</tspan><tspan class="cls-3" x="47.34" y="0">y</tspan><tspan class="cls-5" x="76.26" y="0">-Ch</tspan><tspan class="cls-1" x="168.06" y="0">a</tspan><tspan class="cls-8" x="197.85" y="0">tif</tspan><tspan class="cls-2" x="247.95" y="0">y</tspan><tspan x="276.01" y="0"> </tspan></text>
</svg>